<?xml version="1.0" encoding="UTF-8" standalone="no"?>
<!DOCTYPE svg PUBLIC "-//W3C//DTD SVG 1.1//EN" "http://www.w3.org/Graphics/SVG/1.1/DTD/svg11.dtd">
<svg width="100%" height="100%" viewBox="0 0 128 128" version="1.1" xmlns="http://www.w3.org/2000/svg" xmlns:xlink="http://www.w3.org/1999/xlink" xml:space="preserve" xmlns:serif="http://www.serif.com/" style="fill-rule:evenodd;clip-rule:evenodd;stroke-linejoin:round;stroke-miterlimit:2;">
    <g transform="matrix(0.0766189,0,0,0.0781058,-8.37719,-8.3718)">
        <path d="M1244.45,824.55C1263.41,815.216 1293.4,791.98 1295.59,804.734C1299.01,824.618 1321.25,916.607 1309.67,988.328C1298.58,1057.05 1260.34,1070.24 1245,1068.63C1233.08,1067.38 1232.89,988.257 1232.02,938.506C1231.76,924.183 1229.82,907.142 1222.11,896.687C1214.41,886.233 1193.26,881.698 1180.25,883.481C1160.07,886.247 1140.75,894.176 1133.23,897.773C1113.33,907.279 1140.06,956.537 1143.24,988.054C1150.59,1060.96 1136.95,1109.59 1128.57,1101.38C1121.63,1094.58 1107.65,1052.76 1103.92,1035C1084.44,942.205 1124.06,909.812 1109.22,908.214C1080.82,905.153 1041.57,926.287 1025.12,940.707C1018.54,946.477 1012.54,958.834 1011.92,969.32C1010.45,993.898 1008.25,1051.86 1016.32,1088.17C1024.16,1123.44 1043.01,1164.38 1060.34,1187.22C1074.64,1206.07 1105.32,1225.63 1120.32,1225.19C1159.07,1224.03 1180.61,1212.23 1194.05,1192.17C1202.59,1179.41 1201.84,1159.43 1211.78,1153.95C1244.35,1136 1278.22,1136.75 1275.49,1151.45C1269.77,1182.25 1021.35,1468.71 766.22,1693.48C742.629,1714.26 794.854,1745.52 827.078,1745.7C864.981,1745.93 912.459,1704.83 926.628,1690.7C1325.86,1292.38 1426.77,1102.03 1459.26,1093.39C1466.04,1091.59 1474.2,1116.04 1483.48,1123.39C1529.91,1160.17 1570.78,1135.03 1587.48,1104.68C1596.49,1088.3 1609.63,1020.94 1612.09,998.922C1616.3,961.138 1610.77,908.793 1612.79,877.979C1613.28,870.433 1619.1,850.084 1624.35,855.293C1659.87,890.503 1679.14,895.967 1695.64,852.579C1699.38,842.753 1653.08,805.766 1652.82,795.147C1652.47,781.04 1669.65,762.536 1671.67,758.703C1679.17,744.555 1698.06,718.624 1706.17,701.605C1762.42,583.675 1578.1,613.467 1567.11,594.828C1500.67,482.086 1524.88,370.471 1514.84,343.137C1493.26,284.353 1410.15,301.101 1407,354.142C1398.75,492.681 1441.2,591.391 1447.71,618.262C1448.29,620.64 1446.94,629.739 1435.96,633.594C1425.56,637.251 1382.44,650.982 1378.78,652.432C1363.26,658.568 1360.34,639.684 1357.29,629.26C1355.98,624.773 1321.35,486.525 1316.75,469.694C1311.65,451.006 1305.73,432.734 1324.27,404.636C1337.37,384.769 1400.44,291.722 1410.3,273.806C1449.48,202.57 1413.5,156.283 1399.27,141.589C1385.01,126.861 1346.23,67.635 1190.75,159.904C1165.07,175.143 981.332,288.478 757.733,464.587C572.991,610.092 457.541,735.006 433.605,759.125C431.667,761.078 425.863,761.828 425.351,759.125C423.059,747.02 421.331,707.591 419.849,686.492C418.01,660.31 419.149,631.859 389.634,622.207C379.987,619.052 368.733,617.032 342.264,615.51C327.089,614.638 312.381,627.942 303.852,635.37C298.94,639.648 291.722,653.598 291.091,660.08C287.056,701.533 279.496,850.845 277.334,892.285C275.825,921.231 261.34,934.305 247.621,946.21C232.143,959.641 198.557,992.614 186.543,1006.74C180.8,1013.49 169.081,1024.88 176.639,1044.15C178.904,1049.93 182.878,1059.49 187.644,1066.16C197.652,1080.18 207.394,1083.29 226.087,1082.81C241.425,1082.41 270.353,1062.76 278.934,1071.65C285.071,1078.01 285.955,1399.43 287.239,1455.19C287.384,1461.47 289.329,1507.53 320.725,1508.2C348.017,1508.79 362.219,1510.81 375.736,1501.08C390.134,1490.72 388.087,1466.96 387.934,1444.74C387.324,1355.98 388.026,1242.98 387.384,1170.16C386.907,1116.04 384.45,1036.54 384.083,1007.84C384.04,1004.52 384.174,999.401 385.183,997.933C386.141,996.54 389.574,997.439 390.135,999.034C392.978,1007.1 398.643,1030.48 402.241,1046.36C450.379,1258.8 546.229,1399.13 577.77,1422.17C667.885,1488.02 720.996,1397.4 737.893,1367.7C782.597,1289.11 784.264,1199.12 784.114,1149.8C783.93,1089.46 781.167,1006.13 770.908,935.205C760.269,861.655 733.865,749.461 720.285,708.502C706.961,668.316 712.575,642.46 731.031,626.077C795.627,568.74 1149.29,281.107 1274.38,241.341C1346.12,218.538 1172.16,437.535 1066.84,579.859C920.805,777.195 862.743,864.264 858.947,875.778C839.92,933.492 894.658,940.276 904.618,943.459C932.086,952.236 949.188,958.499 970.648,955.564C992.108,952.629 1056.46,910.218 1067.67,904.466C1127.46,873.79 1223.14,835.038 1244.45,824.55ZM622.891,725.01C614.47,725.234 468.463,873.117 465.52,892.836C463.804,904.327 583.826,1336.29 643.8,1335.79C685.226,1335.44 677.27,1167.42 677.365,1137.7C677.719,1027.8 659.941,906.042 654.255,870.276C648.675,835.177 631.296,724.786 622.891,725.01ZM866.506,952.223C857.511,952.147 819.959,970.078 824.832,1016.64C826.269,1030.37 830.231,1072.37 848.879,1118.81C863.857,1156.11 885.104,1212.06 904.068,1244.44C939.95,1305.73 981.103,1294.87 986.055,1294.52C1000.22,1293.52 1027.07,1283.4 1015.22,1230.14C1011.5,1213.43 973.418,1154.75 960.193,1114.59C951.793,1089.07 937.99,1028.77 933.996,1003.54C925.209,948.026 878.236,952.322 866.506,952.223ZM1475.78,727.211C1470.22,724.717 1445.81,733.34 1435.71,737.071C1423.06,741.749 1408.46,751.422 1399.84,755.274C1396.96,756.561 1393.16,760.05 1394.34,762.977C1402.13,782.327 1401.88,828.592 1411.2,851.091C1502.34,1071.33 1507.68,933.871 1509.25,864.222C1509.94,833.516 1485.02,731.358 1475.78,727.211ZM1214.96,559.935C1210.18,559.209 1009.74,797.786 1025.67,818.002C1035.58,830.567 1227.89,722.35 1257.88,701.899C1266.64,695.926 1227.21,561.796 1214.96,559.935Z" style="fill:rgb(251,147,41);"/>
    </g>
</svg>
